<svg xmlns="http://www.w3.org/2000/svg" viewBox="0 0 100 100">
	<rect class="background" id="background" width="100%" height="100%" fill="white" fill-opacity="0"></rect>
	<path d="M 10 30 L 30 10 A 14 14 0 0 1 50 10 L 95 55 L 55 95 L 10 50 A 14 14 0 0 1 10 30 M 15,35 A 7,7 0 0 0 14,45 L 24,55 55,24 45,14 A 7,7 0 0 0 35,15 L 15,35" fill-opacity="1" stroke-width="0" stroke="white" fill="white"/>
	<!-- <path d="M 15 35 L 35 15 A 7 7 0 0 1 45 14 L 55 24 L 24 55 L 14 45 A 7 7 0 0 1 15 35" fill-opacity="1" stroke-width="0" stroke="white" fill="white"/> -->
</svg>
