<?xml version="1.0" encoding="UTF-8" standalone="no"?>
<svg xmlns="http://www.w3.org/2000/svg" viewBox="0 0 100 100">
    <rect class="background" id="background" width="100%" height="100%" fill="black" fill-opacity="0"></rect>
    <path
    d="M 4.7107005,27.131712 27.131712,4.7107005 a 15.694708,15.694708 0 0 1 22.421011,0 L 99.999999,55.157976 55.157976,99.999999 4.7107005,49.552723 a 15.694708,15.694708 0 0 1 0,-22.421011 m 5.6052525,5.605253 A 7.847354,7.847354 0 0 0 9.1949028,43.947471 L 20.405408,55.157976 55.157976,20.405409 43.947471,9.1949028 A 7.847354,7.847354 0 0 0 32.736965,10.315954 L 10.315953,32.736965"
        fill-opacity="1"
        stroke-width="0"
        stroke="white"
        fill="white"/>
    <!-- <path d="M 10 30 L 30 10 A 14 14 0 0 1 50 10 L 95 55 L 55 95 L 10 50 A 14 14 0 0 1 10 30 M 15,35 A 7,7 0 0 0 14,45 L 24,55 55,24 45,14 A 7,7 0 0 0 35,15 L 15,35" fill-opacity="1" stroke-width="0" stroke="black" fill="black"/> -->
    <!-- <path d="M 15 35 L 35 15 A 7 7 0 0 1 45 14 L 55 24 L 24 55 L 14 45 A 7 7 0 0 1 15 35" fill-opacity="1" stroke-width="0" stroke="black" fill="black"/> -->
</svg>
